#define handcursor_width 32
#define handcursor_height 32
static unsigned char handcursor_bits[] = {
   0x70, 0x00, 0x00, 0x00, 0xc8, 0x00, 0x00, 0x00, 0x84, 0x01, 0x00, 0x00,
   0x04, 0x01, 0x00, 0x00, 0x04, 0x03, 0x00, 0x00, 0x0c, 0x7e, 0x0f, 0x00,
   0x08, 0xc6, 0x08, 0x00, 0x18, 0xc4, 0x10, 0x00, 0x10, 0x84, 0x90, 0x00,
   0x10, 0x8c, 0xf1, 0x03, 0x30, 0x08, 0x21, 0x06, 0x20, 0x18, 0x63, 0x04,
   0x60, 0x10, 0x42, 0x08, 0x40, 0x00, 0xc0, 0x08, 0xc0, 0x00, 0x00, 0x18,
   0x80, 0x00, 0x00, 0x10, 0x80, 0x01, 0x00, 0x10, 0xf8, 0x01, 0x00, 0x30,
   0x0c, 0x03, 0x00, 0x20, 0x04, 0x06, 0x00, 0x20, 0x04, 0x0c, 0x00, 0x20,
   0x0c, 0x00, 0x00, 0x20, 0x08, 0x00, 0x00, 0x20, 0x30, 0x00, 0x00, 0x20,
   0x60, 0x00, 0x00, 0x32, 0xc0, 0x00, 0xe0, 0x1c, 0x80, 0x01, 0x38, 0x07,
   0x00, 0x06, 0xce, 0x01, 0x00, 0x8c, 0x79, 0x00, 0x00, 0x18, 0x0e, 0x00,
   0x00, 0xf0, 0x03, 0x00, 0x00, 0xc0, 0x00, 0x00 };
