#define mousecursor24x24_width 25
#define mousecursor24x24_height 24
static unsigned char mousecursor24x24_bits[] = {
   0x00, 0x00, 0x00, 0x00, 0x1c, 0x00, 0x00, 0x00, 0x7c, 0x00, 0x00, 0x00,
   0xec, 0x03, 0x00, 0x00, 0x88, 0x0f, 0x00, 0x00, 0x18, 0x3c, 0x00, 0x00,
   0x18, 0xf0, 0x00, 0x00, 0x30, 0xc0, 0x03, 0x00, 0x30, 0x00, 0x1f, 0x00,
   0x60, 0x00, 0x18, 0x00, 0x60, 0x00, 0x1e, 0x00, 0xc0, 0x80, 0x0f, 0x00,
   0xc0, 0x80, 0x03, 0x00, 0xc0, 0x00, 0x07, 0x00, 0x80, 0x31, 0x0e, 0x00,
   0x80, 0x71, 0x1c, 0x00, 0x00, 0xdb, 0x38, 0x00, 0x00, 0x9b, 0x71, 0x00,
   0x00, 0x0e, 0xe3, 0x00, 0x00, 0x0e, 0xc6, 0x00, 0x00, 0x04, 0xec, 0x00,
   0x00, 0x00, 0x78, 0x00, 0x00, 0x00, 0x30, 0x00, 0x00, 0x00, 0x00, 0x00 };
