#define handok_width 50
#define handok_height 64
static unsigned char handok_bits[] = {
   0x00, 0x00, 0x00, 0x00, 0x00, 0x00, 0x00, 0x00, 0x00, 0x06, 0x00, 0x00,
   0x00, 0x00, 0x00, 0x00, 0x0f, 0x00, 0x00, 0x00, 0x00, 0x00, 0x00, 0x0f,
   0x00, 0x00, 0x00, 0x00, 0x00, 0x80, 0x19, 0x00, 0x00, 0x00, 0x00, 0x00,
   0x80, 0x19, 0x00, 0x00, 0x00, 0x00, 0x60, 0x80, 0x10, 0x00, 0x00, 0x00,
   0x00, 0xf0, 0x80, 0x30, 0xc0, 0x01, 0x00, 0x00, 0xf0, 0x81, 0x30, 0xe0,
   0x01, 0x00, 0x00, 0xb0, 0x83, 0x60, 0xb0, 0x01, 0x00, 0x00, 0x30, 0x87,
   0x61, 0x98, 0x01, 0x00, 0x00, 0x30, 0x8c, 0xc1, 0x98, 0x01, 0x00, 0x00,
   0x30, 0xb8, 0xc1, 0x8c, 0x01, 0x00, 0x00, 0x60, 0x70, 0x83, 0x8d, 0x01,
   0x00, 0x00, 0xe0, 0xe0, 0x83, 0x8d, 0x01, 0x00, 0x00, 0xc0, 0xc1, 0x03,
   0x8f, 0x01, 0x00, 0x00, 0x80, 0x83, 0x07, 0x8f, 0x01, 0x00, 0x00, 0x00,
   0x07, 0x07, 0x8f, 0x01, 0x00, 0x00, 0x00, 0x0e, 0x0c, 0x8e, 0x01, 0x00,
   0x00, 0x00, 0x1c, 0x18, 0x8e, 0x01, 0x00, 0x00, 0x00, 0x18, 0x30, 0x8c,
   0x01, 0x00, 0x00, 0x00, 0x30, 0xe0, 0x8c, 0x01, 0x00, 0x00, 0x00, 0x60,
   0xc0, 0x99, 0x01, 0x00, 0x00, 0x00, 0xf0, 0x83, 0x9b, 0x01, 0x00, 0x00,
   0x00, 0xf8, 0x1f, 0x9f, 0x01, 0x00, 0x00, 0x00, 0x1c, 0xfc, 0xbe, 0x01,
   0x00, 0x00, 0x00, 0x0e, 0xe0, 0xbf, 0x01, 0x00, 0x00, 0x00, 0x07, 0x00,
   0xff, 0x01, 0x00, 0x00, 0xc0, 0x01, 0x00, 0xf8, 0x01, 0x00, 0x00, 0xc0,
   0x00, 0x00, 0xc0, 0x01, 0x00, 0x00, 0x60, 0x00, 0x00, 0x80, 0x01, 0x00,
   0x00, 0x60, 0x00, 0x03, 0x80, 0x03, 0x00, 0x00, 0x60, 0xc0, 0x03, 0x00,
   0x03, 0x00, 0x00, 0x60, 0xf0, 0x07, 0x00, 0x06, 0x00, 0x00, 0x20, 0x38,
   0x0c, 0x00, 0x06, 0x00, 0x00, 0x20, 0x0c, 0x18, 0x00, 0x0c, 0x00, 0x00,
   0x20, 0x0c, 0x70, 0x00, 0x1c, 0x00, 0x00, 0x30, 0x0e, 0x60, 0x00, 0x18,
   0x00, 0x00, 0x30, 0x07, 0x20, 0x00, 0x30, 0x00, 0x00, 0xe0, 0x1f, 0x30,
   0x00, 0x30, 0x00, 0x00, 0xe0, 0x7f, 0x30, 0x00, 0x60, 0x00, 0x00, 0xe0,
   0xe0, 0x3f, 0x00, 0xc0, 0x00, 0x00, 0x60, 0x80, 0x0f, 0x00, 0xc0, 0x00,
   0x00, 0xe0, 0x00, 0x00, 0x00, 0x80, 0x01, 0x00, 0xc0, 0x01, 0x00, 0x00,
   0x80, 0x01, 0x00, 0x80, 0x03, 0x00, 0x00, 0x00, 0x03, 0x00, 0x00, 0x0f,
   0x00, 0x00, 0x00, 0x06, 0x00, 0x00, 0x1c, 0x00, 0x00, 0x00, 0x06, 0x00,
   0x00, 0xf8, 0x00, 0x00, 0x00, 0x0c, 0x00, 0x00, 0xe0, 0x1f, 0x00, 0x00,
   0x0c, 0x00, 0x00, 0x00, 0x7f, 0x00, 0x00, 0x18, 0x00, 0x00, 0x00, 0xe0,
   0x00, 0x00, 0x30, 0x00, 0x00, 0x00, 0xc0, 0x01, 0x00, 0x30, 0x00, 0x00,
   0x00, 0x00, 0x07, 0x00, 0x60, 0x00, 0x00, 0x00, 0x00, 0x0e, 0x00, 0xe0,
   0x00, 0x00, 0x00, 0x00, 0x38, 0x00, 0xc0, 0x00, 0x00, 0x00, 0x00, 0xf0,
   0x01, 0x60, 0x00, 0x00, 0x00, 0x00, 0xc0, 0x0f, 0x60, 0x00, 0x00, 0x00,
   0x00, 0x00, 0x1e, 0x30, 0x00, 0x00, 0x00, 0x00, 0x00, 0x38, 0x1c, 0x00,
   0x00, 0x00, 0x00, 0x00, 0x30, 0x0e, 0x00, 0x00, 0x00, 0x00, 0x00, 0xe0,
   0x07, 0x00, 0x00, 0x00, 0x00, 0x00, 0xc0, 0x01, 0x00, 0x00, 0x00, 0x00,
   0x00, 0x00, 0x00, 0x00 };
