#define ironman_width 45
#define ironman_height 64
static unsigned char ironman_bits[] = {
   0x00, 0x00, 0x00, 0x00, 0x00, 0x00, 0x00, 0x00, 0xfe, 0x1f, 0x00, 0x00,
   0x00, 0x60, 0xff, 0xff, 0x00, 0x00, 0x00, 0x08, 0xff, 0x1f, 0x02, 0x00,
   0x00, 0x06, 0xfe, 0x1f, 0x04, 0x00, 0x80, 0x00, 0xfe, 0x1f, 0x20, 0x00,
   0x40, 0x00, 0xff, 0x1f, 0x40, 0x00, 0x20, 0x00, 0xfe, 0x1f, 0x80, 0x00,
   0x00, 0x00, 0xfe, 0x0f, 0x00, 0x01, 0x00, 0x00, 0xfe, 0x0f, 0x00, 0x00,
   0x00, 0x00, 0xfe, 0x0f, 0x00, 0x02, 0x00, 0x00, 0xfe, 0x07, 0x00, 0x02,
   0x00, 0x00, 0xfe, 0x07, 0x00, 0x02, 0x00, 0x00, 0xfe, 0x07, 0x00, 0x02,
   0x10, 0x00, 0x00, 0x00, 0x00, 0x02, 0x00, 0x00, 0x00, 0x00, 0x00, 0x02,
   0x10, 0x00, 0x00, 0x00, 0x00, 0x06, 0x00, 0x00, 0x00, 0x00, 0x00, 0x06,
   0x08, 0x00, 0x00, 0x00, 0x00, 0x06, 0x18, 0x00, 0x00, 0x00, 0x00, 0x06,
   0x08, 0x00, 0x00, 0x00, 0x00, 0x06, 0x08, 0x00, 0x00, 0x00, 0x00, 0x06,
   0x18, 0x00, 0x00, 0x00, 0x00, 0x06, 0x08, 0x00, 0x00, 0x00, 0x00, 0x06,
   0x08, 0x00, 0x00, 0x00, 0x00, 0x06, 0x08, 0x00, 0x00, 0x00, 0x00, 0x06,
   0xcc, 0x00, 0x00, 0x00, 0x00, 0x06, 0xcc, 0x3f, 0x00, 0x00, 0x7d, 0x06,
   0xc4, 0xff, 0x01, 0xf8, 0xff, 0x0c, 0x04, 0xd5, 0x00, 0xe0, 0x3f, 0x04,
   0x04, 0x00, 0x00, 0x00, 0x00, 0x0c, 0x04, 0x00, 0x00, 0x00, 0x00, 0x04,
   0x04, 0x00, 0x00, 0x00, 0x00, 0x08, 0x02, 0x00, 0x00, 0x00, 0x00, 0x00,
   0x04, 0x00, 0x00, 0x00, 0x00, 0x04, 0x04, 0x00, 0x00, 0x00, 0x00, 0x04,
   0x04, 0x00, 0x00, 0x00, 0x00, 0x04, 0x0c, 0x00, 0x00, 0x00, 0x00, 0x06,
   0x2c, 0x00, 0x00, 0x00, 0x00, 0x06, 0x0c, 0x00, 0x00, 0x00, 0x00, 0x06,
   0x5c, 0x00, 0x00, 0x00, 0x40, 0x07, 0x98, 0x00, 0x00, 0x00, 0x00, 0x03,
   0x98, 0x00, 0x00, 0x00, 0xa0, 0x03, 0xb8, 0x01, 0x00, 0x00, 0xb0, 0x03,
   0x38, 0x01, 0x00, 0x00, 0xd0, 0x03, 0x78, 0x03, 0x00, 0x00, 0xc8, 0x03,
   0x78, 0x02, 0x00, 0x00, 0xe8, 0x03, 0xf8, 0x02, 0x00, 0x00, 0xe0, 0x03,
   0xf8, 0x00, 0x00, 0x00, 0xf8, 0x03, 0xf0, 0xc1, 0xff, 0x1f, 0xf0, 0x01,
   0xf0, 0x45, 0x00, 0x20, 0xf8, 0x01, 0xf0, 0x29, 0x00, 0x40, 0xf9, 0x01,
   0xf0, 0x01, 0x00, 0x80, 0xf8, 0x01, 0xe0, 0x01, 0x00, 0x00, 0xf8, 0x00,
   0xe0, 0x00, 0x00, 0x00, 0xf0, 0x00, 0xc0, 0x01, 0xf8, 0x00, 0xf0, 0x00,
   0xc0, 0x81, 0xff, 0x0f, 0xf8, 0x00, 0x80, 0xe3, 0xff, 0x3f, 0x78, 0x00,
   0x00, 0xf7, 0xff, 0x7f, 0x1e, 0x00, 0x00, 0xee, 0xff, 0x7f, 0x0f, 0x00,
   0x00, 0xec, 0x00, 0x70, 0x03, 0x00, 0x00, 0x28, 0x00, 0xa0, 0x01, 0x00,
   0x00, 0x00, 0x00, 0x00, 0x00, 0x00, 0x00, 0x00, 0x00, 0x00, 0x00, 0x00 };
