#define java_width 64
#define java_height 64
static unsigned char java_bits[] = {
   0x00, 0x00, 0x00, 0x00, 0x00, 0x00, 0x00, 0x00, 0x00, 0x00, 0x00, 0x00,
   0x10, 0x00, 0x00, 0x00, 0x00, 0x00, 0x00, 0x00, 0x10, 0x00, 0x00, 0x00,
   0x00, 0x00, 0x00, 0x00, 0x30, 0x00, 0x00, 0x00, 0x00, 0x00, 0x00, 0x00,
   0x30, 0x00, 0x00, 0x00, 0x00, 0x00, 0x00, 0x00, 0x30, 0x00, 0x00, 0x00,
   0x00, 0x00, 0x00, 0x00, 0x30, 0x00, 0x00, 0x00, 0x00, 0x00, 0x00, 0x00,
   0x38, 0x00, 0x00, 0x00, 0x00, 0x00, 0x00, 0x00, 0x1c, 0x00, 0x00, 0x00,
   0x00, 0x00, 0x00, 0x00, 0x1e, 0x00, 0x00, 0x00, 0x00, 0x00, 0x00, 0x00,
   0x0f, 0x00, 0x00, 0x00, 0x00, 0x00, 0x00, 0x80, 0x07, 0x03, 0x00, 0x00,
   0x00, 0x00, 0x00, 0xc0, 0xe3, 0x01, 0x00, 0x00, 0x00, 0x00, 0x00, 0xe0,
   0x79, 0x00, 0x00, 0x00, 0x00, 0x00, 0x00, 0xf0, 0x3c, 0x00, 0x00, 0x00,
   0x00, 0x00, 0x00, 0x78, 0x1e, 0x00, 0x00, 0x00, 0x00, 0x00, 0x00, 0x3c,
   0x0f, 0x00, 0x00, 0x00, 0x00, 0x00, 0x00, 0x1c, 0x07, 0x00, 0x00, 0x00,
   0x00, 0x00, 0x00, 0x1c, 0x07, 0x00, 0x00, 0x00, 0x00, 0x00, 0x00, 0x1c,
   0x0f, 0x00, 0x00, 0x00, 0x00, 0x00, 0x00, 0x1c, 0x0f, 0x00, 0x00, 0x00,
   0x00, 0x00, 0x00, 0x38, 0x1f, 0x00, 0x00, 0x00, 0x00, 0x00, 0x00, 0x38,
   0x1e, 0x00, 0x00, 0x00, 0x00, 0x00, 0x00, 0x70, 0x3e, 0x00, 0x00, 0x00,
   0x00, 0x00, 0x00, 0x60, 0x3c, 0x00, 0x00, 0x00, 0x00, 0x00, 0x00, 0xc0,
   0x1c, 0x00, 0x00, 0x00, 0x00, 0x00, 0x00, 0x84, 0x0c, 0x7c, 0x00, 0x00,
   0x00, 0x00, 0xc0, 0x03, 0x04, 0xf8, 0x00, 0x00, 0x00, 0x00, 0xe0, 0x01,
   0xfe, 0xc1, 0x01, 0x00, 0x00, 0x00, 0xe0, 0xff, 0x3f, 0xc0, 0x01, 0x00,
   0x00, 0x00, 0xc0, 0xff, 0x00, 0xc0, 0x01, 0x00, 0x00, 0x00, 0x00, 0x03,
   0x00, 0xe0, 0x00, 0x00, 0x00, 0x00, 0x80, 0x01, 0x60, 0x70, 0x00, 0x00,
   0x00, 0x00, 0x80, 0xff, 0xff, 0x38, 0x00, 0x00, 0x00, 0x00, 0x00, 0xff,
   0xff, 0x0e, 0x00, 0x00, 0x00, 0x00, 0x00, 0xfc, 0x03, 0x00, 0x00, 0x00,
   0x00, 0x00, 0x00, 0x02, 0x00, 0x00, 0x00, 0x00, 0x00, 0x00, 0x00, 0x0f,
   0x0c, 0x00, 0x00, 0x00, 0x00, 0x00, 0x00, 0xff, 0xff, 0x00, 0x00, 0x00,
   0x00, 0x00, 0x30, 0xfc, 0x3f, 0x00, 0x00, 0x00, 0x00, 0x00, 0x3e, 0x00,
   0x00, 0x60, 0x00, 0x00, 0x00, 0x80, 0x1f, 0x00, 0x00, 0x3c, 0x00, 0x00,
   0x00, 0x80, 0x7f, 0x00, 0xe0, 0x1f, 0x00, 0x00, 0x00, 0x80, 0xff, 0xff,
   0xff, 0xff, 0x00, 0x00, 0x00, 0x00, 0xfe, 0xff, 0xcf, 0x3f, 0x00, 0x00,
   0x00, 0x00, 0xe0, 0x01, 0xfe, 0x07, 0x00, 0x00, 0x00, 0x00, 0x80, 0xff,
   0x7f, 0x00, 0x00, 0x00, 0x00, 0x00, 0x00, 0xfe, 0x07, 0x00, 0x00, 0x00,
   0x00, 0x00, 0x18, 0x00, 0x00, 0x00, 0x00, 0x00, 0x00, 0x00, 0x18, 0x00,
   0x00, 0x00, 0x00, 0x00, 0x00, 0x00, 0x18, 0x00, 0x00, 0x00, 0x00, 0x00,
   0x00, 0x00, 0x98, 0x9f, 0x31, 0x3f, 0x00, 0x00, 0x00, 0x00, 0x18, 0x98,
   0x31, 0x30, 0x00, 0x00, 0x00, 0x00, 0x18, 0x98, 0x31, 0x60, 0x00, 0x00,
   0x00, 0x00, 0x18, 0x1c, 0x33, 0x78, 0x00, 0x00, 0x00, 0x00, 0x98, 0x1f,
   0x1b, 0x7f, 0x00, 0x00, 0x00, 0x00, 0xd8, 0x18, 0x1b, 0x63, 0x00, 0x00,
   0x00, 0x00, 0xd8, 0x18, 0x9f, 0x71, 0x00, 0x00, 0x00, 0x00, 0xd8, 0x1d,
   0x8e, 0x7b, 0x00, 0x00, 0x00, 0x00, 0x98, 0x17, 0x0e, 0x7f, 0x00, 0x00,
   0x00, 0x00, 0x1c, 0x00, 0x00, 0x00, 0x00, 0x00, 0x00, 0x00, 0x0c, 0x00,
   0x00, 0x00, 0x00, 0x00, 0x00, 0x00, 0x06, 0x00, 0x00, 0x00, 0x00, 0x00,
   0x00, 0x00, 0x00, 0x00, 0x00, 0x00, 0x00, 0x00 };
