#define metallica_width 128
#define metallica_height 54
static unsigned char metallica_bits[] = {
   0x00, 0x00, 0x00, 0x00, 0x00, 0x00, 0x00, 0x00, 0x00, 0x00, 0x00, 0x00,
   0x00, 0x00, 0x00, 0x00, 0x00, 0x00, 0x00, 0x00, 0x00, 0x00, 0x00, 0x00,
   0x00, 0x00, 0x00, 0x00, 0x00, 0x00, 0x00, 0x00, 0x00, 0x00, 0x00, 0x10,
   0x00, 0x00, 0x00, 0x00, 0x00, 0x00, 0x00, 0x00, 0x04, 0x00, 0x00, 0x00,
   0x00, 0x00, 0x00, 0x08, 0x00, 0x00, 0x00, 0x00, 0x00, 0x00, 0x00, 0x00,
   0x18, 0x00, 0x00, 0x00, 0x00, 0x00, 0x00, 0x0c, 0x00, 0x00, 0x00, 0x00,
   0x00, 0x00, 0x00, 0x00, 0x38, 0x00, 0x00, 0x00, 0x00, 0x00, 0x00, 0x06,
   0x00, 0x00, 0x00, 0x00, 0x00, 0x00, 0x00, 0x00, 0x70, 0x00, 0x00, 0x00,
   0x00, 0x00, 0x00, 0x07, 0x00, 0x00, 0x00, 0x00, 0x00, 0x00, 0x00, 0x00,
   0xf0, 0x00, 0x00, 0x00, 0x00, 0x00, 0x80, 0x03, 0x00, 0x00, 0x00, 0x00,
   0x00, 0x00, 0x00, 0x00, 0xf0, 0x01, 0x00, 0x00, 0x00, 0x00, 0xc0, 0x03,
   0x00, 0x00, 0x00, 0x00, 0x00, 0x00, 0x00, 0x00, 0xf0, 0x03, 0x00, 0x00,
   0x00, 0x00, 0xe0, 0x03, 0x00, 0x00, 0x00, 0x00, 0x00, 0x00, 0x00, 0xf8,
   0xe1, 0x09, 0x00, 0x00, 0x00, 0x00, 0xf0, 0xa1, 0xff, 0xfd, 0x9f, 0xef,
   0x81, 0x0f, 0x3e, 0xfe, 0xe3, 0x01, 0x00, 0x00, 0x00, 0x00, 0xc8, 0xb1,
   0xff, 0xfd, 0x9f, 0xef, 0x81, 0x0f, 0x3e, 0xff, 0xe3, 0x03, 0x00, 0x00,
   0x00, 0x00, 0xe0, 0xb8, 0xff, 0xfd, 0xdf, 0xef, 0x81, 0x0f, 0x3e, 0xff,
   0xe1, 0x03, 0x00, 0x00, 0x00, 0x00, 0xe0, 0xbc, 0x0f, 0xf0, 0xc1, 0xef,
   0x81, 0x0f, 0xbe, 0xdf, 0xe0, 0x07, 0x00, 0x00, 0x00, 0x00, 0xf0, 0xbf,
   0x07, 0xf0, 0xe1, 0xef, 0x81, 0x0f, 0xbe, 0x0f, 0xe0, 0x06, 0x00, 0x00,
   0x00, 0x00, 0xf0, 0xbf, 0xff, 0xf1, 0xe1, 0xef, 0x81, 0x0f, 0xbe, 0x07,
   0xe0, 0x0f, 0x00, 0x00, 0x00, 0x00, 0xf8, 0xbf, 0xff, 0xf1, 0xf1, 0xef,
   0x81, 0x0f, 0xbe, 0x07, 0xe0, 0x0f, 0x00, 0x00, 0x00, 0x00, 0xf8, 0xbf,
   0xff, 0xf1, 0xf1, 0xef, 0x81, 0x0f, 0xbe, 0x07, 0xe0, 0x1f, 0x00, 0x00,
   0x00, 0x00, 0xfc, 0xbf, 0xff, 0xf1, 0xf1, 0xef, 0x81, 0x0f, 0xbe, 0x8f,
   0xe3, 0x1f, 0x00, 0x00, 0x00, 0x00, 0x9c, 0xbe, 0x0f, 0xf0, 0xf9, 0xef,
   0x83, 0x0f, 0xbe, 0xff, 0xef, 0x39, 0x00, 0x00, 0x00, 0x00, 0x1e, 0xbe,
   0xff, 0xf1, 0x79, 0xef, 0xff, 0xff, 0x3f, 0xff, 0xef, 0x39, 0x00, 0x00,
   0x00, 0x00, 0x0e, 0xbe, 0xff, 0xf1, 0x7d, 0xef, 0xff, 0xff, 0x3f, 0xfe,
   0xe7, 0x71, 0x00, 0x00, 0x00, 0x00, 0x0f, 0xbe, 0xff, 0xf1, 0x3d, 0xef,
   0xff, 0xff, 0x3f, 0xfc, 0xe3, 0x71, 0x00, 0x00, 0x00, 0x00, 0x07, 0x3e,
   0xff, 0xf0, 0x1c, 0xcf, 0x3f, 0xff, 0x1c, 0x20, 0xe0, 0xe3, 0x00, 0x00,
   0x00, 0x80, 0x07, 0x1e, 0x00, 0x00, 0x00, 0x00, 0x00, 0x00, 0x00, 0x00,
   0xc0, 0xe3, 0x01, 0x00, 0x00, 0x80, 0x03, 0x0f, 0x00, 0x00, 0x00, 0x00,
   0x00, 0x00, 0x00, 0x00, 0x80, 0xc3, 0x01, 0x00, 0x00, 0xc0, 0x03, 0x07,
   0x00, 0x00, 0x00, 0x00, 0x00, 0x00, 0x00, 0x00, 0x00, 0xc3, 0x03, 0x00,
   0x00, 0xc0, 0x01, 0x03, 0x00, 0x00, 0x00, 0x00, 0x00, 0x00, 0x00, 0x00,
   0x00, 0x82, 0x03, 0x00, 0x00, 0xe0, 0x01, 0x01, 0x00, 0x00, 0x00, 0x00,
   0x00, 0x00, 0x00, 0x00, 0x00, 0x82, 0x07, 0x00, 0x00, 0xe0, 0x00, 0x00,
   0x00, 0x00, 0x00, 0x00, 0x00, 0x00, 0x00, 0x00, 0x00, 0x00, 0x07, 0x00,
   0x00, 0xf0, 0x00, 0x00, 0x00, 0x00, 0x00, 0x00, 0x00, 0x00, 0x00, 0x00,
   0x00, 0x00, 0x0f, 0x00, 0x00, 0xf0, 0x00, 0x00, 0x00, 0x00, 0x00, 0x00,
   0x00, 0x00, 0x00, 0x00, 0x00, 0x00, 0x0e, 0x00, 0x00, 0x78, 0x00, 0x00,
   0x00, 0x00, 0x00, 0x00, 0x00, 0x00, 0x00, 0x00, 0x00, 0x00, 0x1e, 0x00,
   0x00, 0x78, 0x00, 0x00, 0x00, 0x00, 0x00, 0x00, 0x00, 0x00, 0x00, 0x00,
   0x00, 0x00, 0x1c, 0x00, 0x00, 0x3c, 0x00, 0x00, 0x00, 0x00, 0x00, 0x00,
   0x00, 0x00, 0x00, 0x00, 0x00, 0x00, 0x3c, 0x00, 0x00, 0x3e, 0x00, 0x00,
   0x00, 0x00, 0x00, 0x00, 0x00, 0x00, 0x00, 0x00, 0x00, 0x00, 0x38, 0x00,
   0x00, 0x1e, 0x00, 0x00, 0x00, 0x00, 0x00, 0x00, 0x00, 0x00, 0x00, 0x00,
   0x00, 0x00, 0x78, 0x00, 0x00, 0x1f, 0x00, 0x00, 0x00, 0x00, 0x00, 0x00,
   0x00, 0x00, 0x00, 0x00, 0x00, 0x80, 0x70, 0x00, 0x00, 0x0f, 0x00, 0x00,
   0x00, 0x00, 0x00, 0x00, 0x00, 0x00, 0x00, 0x00, 0x00, 0x00, 0xf3, 0x00,
   0x80, 0x3f, 0x00, 0x00, 0x00, 0x00, 0x00, 0x00, 0x00, 0x00, 0x00, 0x00,
   0x00, 0x00, 0xfe, 0x00, 0x80, 0x1f, 0x00, 0x00, 0x00, 0x00, 0x00, 0x00,
   0x00, 0x00, 0x00, 0x00, 0x00, 0x00, 0xfc, 0x01, 0xc0, 0x0f, 0x00, 0x00,
   0x00, 0x00, 0x00, 0x00, 0x00, 0x00, 0x00, 0x00, 0x00, 0x00, 0xf8, 0x03,
   0xc0, 0x07, 0x00, 0x00, 0x00, 0x00, 0x00, 0x00, 0x00, 0x00, 0x00, 0x00,
   0x00, 0x00, 0xf0, 0x03, 0xe0, 0x03, 0x00, 0x00, 0x00, 0x00, 0x00, 0x00,
   0x00, 0x00, 0x00, 0x00, 0x00, 0x00, 0xe0, 0x07, 0xe0, 0x01, 0x00, 0x00,
   0x00, 0x00, 0x00, 0x00, 0x00, 0x00, 0x00, 0x00, 0x00, 0x00, 0xc0, 0x07,
   0xf0, 0x00, 0x00, 0x00, 0x00, 0x00, 0x00, 0x00, 0x00, 0x00, 0x00, 0x00,
   0x00, 0x00, 0x80, 0x0f, 0x70, 0x00, 0x00, 0x00, 0x00, 0x00, 0x00, 0x00,
   0x00, 0x00, 0x00, 0x00, 0x00, 0x00, 0x00, 0x0f, 0x38, 0x00, 0x00, 0x00,
   0x00, 0x00, 0x00, 0x00, 0x00, 0x00, 0x00, 0x00, 0x00, 0x00, 0x00, 0x1c,
   0x18, 0x00, 0x00, 0x00, 0x00, 0x00, 0x00, 0x00, 0x00, 0x00, 0x00, 0x00,
   0x00, 0x00, 0x00, 0x18, 0x0c, 0x00, 0x00, 0x00, 0x00, 0x00, 0x00, 0x00,
   0x00, 0x00, 0x00, 0x00, 0x00, 0x00, 0x00, 0x30, 0x04, 0x00, 0x00, 0x00,
   0x00, 0x00, 0x00, 0x00, 0x00, 0x00, 0x00, 0x00, 0x00, 0x00, 0x00, 0x20,
   0x02, 0x00, 0x00, 0x00, 0x00, 0x00, 0x00, 0x00, 0x00, 0x00, 0x00, 0x00,
   0x00, 0x00, 0x00, 0x40, 0x00, 0x00, 0x00, 0x00, 0x00, 0x00, 0x00, 0x00,
   0x00, 0x00, 0x00, 0x00, 0x00, 0x00, 0x00, 0x00, 0x00, 0x00, 0x00, 0x00,
   0x00, 0x00, 0x00, 0x00, 0x00, 0x00, 0x00, 0x00, 0x00, 0x00, 0x00, 0x00 };
