#define raspberrypi_width 50
#define raspberrypi_height 64
static unsigned char raspberrypi_bits[] = {
   0x00, 0x00, 0x00, 0x00, 0x00, 0x00, 0x00, 0x00, 0x00, 0x00, 0x00, 0x00,
   0x00, 0x00, 0x00, 0xfe, 0x01, 0x00, 0xff, 0x01, 0x00, 0xc0, 0xff, 0x0f,
   0xc0, 0xff, 0x0f, 0x00, 0xf8, 0x0b, 0x3e, 0xf0, 0x02, 0x3d, 0x00, 0x78,
   0x00, 0x70, 0x38, 0x00, 0x60, 0x00, 0x18, 0x00, 0xe0, 0x0c, 0x00, 0x30,
   0x00, 0x18, 0x00, 0xc0, 0x06, 0x00, 0x70, 0x00, 0x18, 0x08, 0x80, 0x07,
   0x20, 0x30, 0x00, 0x38, 0x20, 0x80, 0x03, 0x08, 0x30, 0x00, 0x10, 0xc0,
   0x80, 0x03, 0x06, 0x30, 0x00, 0x30, 0x00, 0x83, 0x83, 0x01, 0x18, 0x00,
   0x30, 0x00, 0x86, 0xc3, 0x00, 0x18, 0x00, 0x60, 0x00, 0xd8, 0x67, 0x00,
   0x1c, 0x00, 0xe0, 0x00, 0xf0, 0x1f, 0x00, 0x0c, 0x00, 0xc0, 0x01, 0xf0,
   0x1f, 0x00, 0x06, 0x00, 0x80, 0x01, 0xf0, 0x3f, 0x00, 0x07, 0x00, 0x00,
   0x07, 0xf8, 0x7f, 0x80, 0x03, 0x00, 0x00, 0x1e, 0xff, 0xff, 0xf1, 0x00,
   0x00, 0x00, 0xfc, 0x3f, 0xf8, 0x7f, 0x00, 0x00, 0x00, 0x3e, 0x0e, 0xe0,
   0xff, 0x00, 0x00, 0x00, 0x07, 0x06, 0xc0, 0xc0, 0x01, 0x00, 0x80, 0x03,
   0x07, 0x80, 0x80, 0x03, 0x00, 0x80, 0x81, 0x03, 0x80, 0x01, 0x07, 0x00,
   0xc0, 0xc0, 0x07, 0x80, 0x07, 0x06, 0x00, 0xc0, 0xe0, 0x0f, 0xc0, 0x0f,
   0x0e, 0x00, 0x40, 0xf0, 0x7f, 0xf8, 0x1f, 0x0e, 0x00, 0x60, 0x7c, 0xf0,
   0x1f, 0x38, 0x0e, 0x00, 0x60, 0x3e, 0xe0, 0x0f, 0xf0, 0x0e, 0x00, 0xe0,
   0x1f, 0xc0, 0x07, 0xe0, 0x0f, 0x00, 0xf0, 0x0f, 0x80, 0x07, 0xc0, 0x1f,
   0x00, 0xb8, 0x07, 0x80, 0x03, 0xc0, 0x39, 0x00, 0x1c, 0x07, 0x80, 0x03,
   0x80, 0x71, 0x00, 0x0c, 0x03, 0x80, 0x03, 0x80, 0xe1, 0x00, 0x06, 0x03,
   0x80, 0x03, 0x80, 0xe1, 0x00, 0x06, 0x03, 0x80, 0x07, 0x80, 0xc1, 0x00,
   0x06, 0x03, 0xc0, 0x07, 0x80, 0xc1, 0x01, 0x06, 0x07, 0xc0, 0x0f, 0x80,
   0xc1, 0x01, 0x06, 0x07, 0xe0, 0x0f, 0xc0, 0xc1, 0x01, 0x86, 0x0f, 0xf0,
   0x3f, 0xc0, 0xc1, 0x00, 0x86, 0x1f, 0x38, 0xf0, 0xf0, 0xe3, 0x00, 0x8c,
   0xff, 0x0f, 0xe0, 0xff, 0xe3, 0x00, 0xcc, 0xff, 0x07, 0xc0, 0x7f, 0x74,
   0x00, 0xf8, 0xff, 0x07, 0x80, 0x1f, 0x3c, 0x00, 0x78, 0xf0, 0x03, 0x80,
   0x0f, 0x38, 0x00, 0x70, 0xe0, 0x03, 0x00, 0x07, 0x18, 0x00, 0x30, 0xc0,
   0x03, 0x00, 0x07, 0x18, 0x00, 0x30, 0x80, 0x03, 0x00, 0x03, 0x18, 0x00,
   0x60, 0x80, 0x03, 0x80, 0x01, 0x08, 0x00, 0x60, 0x00, 0x07, 0x80, 0x01,
   0x08, 0x00, 0x60, 0x00, 0x0f, 0xc0, 0x01, 0x0c, 0x00, 0xe0, 0x00, 0x1f,
   0xe0, 0x00, 0x04, 0x00, 0xc0, 0x00, 0x7e, 0xf8, 0x00, 0x06, 0x00, 0x80,
   0x03, 0xff, 0xff, 0x01, 0x03, 0x00, 0x00, 0x07, 0xff, 0xff, 0xc1, 0x01,
   0x00, 0x00, 0xfe, 0x3f, 0xe0, 0xff, 0x00, 0x00, 0x00, 0xf8, 0x07, 0x80,
   0x3f, 0x00, 0x00, 0x00, 0xf0, 0x03, 0x80, 0x1f, 0x00, 0x00, 0x00, 0xc0,
   0x03, 0x80, 0x07, 0x00, 0x00, 0x00, 0x00, 0x07, 0xc0, 0x01, 0x00, 0x00,
   0x00, 0x00, 0x1e, 0xf0, 0x00, 0x00, 0x00, 0x00, 0x00, 0x78, 0x3e, 0x00,
   0x00, 0x00, 0x00, 0x00, 0xf0, 0x1f, 0x00, 0x00, 0x00, 0x00, 0x00, 0x00,
   0x00, 0x00, 0x00, 0x00 };
