#define sepultura_width 128
#define sepultura_height 54
static unsigned char sepultura_bits[] = {
   0x00, 0x00, 0x00, 0x00, 0x00, 0x00, 0x00, 0x00, 0x00, 0x00, 0x00, 0x00,
   0x00, 0x00, 0x00, 0x00, 0x00, 0x00, 0x00, 0x00, 0x00, 0x00, 0x00, 0x00,
   0x18, 0x00, 0x00, 0x00, 0x00, 0x00, 0x00, 0x00, 0x00, 0x00, 0x00, 0x00,
   0x00, 0x00, 0x00, 0x00, 0x38, 0x00, 0x00, 0x00, 0x00, 0x00, 0x02, 0x00,
   0x00, 0x00, 0x00, 0x00, 0x00, 0x00, 0x00, 0x00, 0x7c, 0x00, 0x00, 0x00,
   0x00, 0x00, 0x06, 0x00, 0x00, 0x00, 0x00, 0x00, 0x18, 0x00, 0x00, 0x00,
   0xec, 0x00, 0x00, 0x00, 0x00, 0x00, 0x06, 0x00, 0x00, 0x00, 0x00, 0x00,
   0x18, 0x00, 0x00, 0x81, 0xc6, 0x03, 0x00, 0x00, 0x00, 0x00, 0x0e, 0x00,
   0x00, 0x10, 0x00, 0x00, 0x1c, 0x00, 0x00, 0xc3, 0x83, 0x07, 0x00, 0x00,
   0x00, 0x00, 0x0a, 0x00, 0x00, 0x70, 0x00, 0x01, 0x1c, 0x00, 0x80, 0xe3,
   0xc3, 0x0f, 0x00, 0x00, 0x18, 0x00, 0x0b, 0x00, 0x00, 0xf3, 0x80, 0x01,
   0x1e, 0x00, 0xc0, 0xe2, 0x87, 0x1b, 0x00, 0x0c, 0x18, 0x00, 0x11, 0x00,
   0x80, 0xba, 0x81, 0x01, 0xb2, 0x04, 0xc0, 0xb6, 0x85, 0x39, 0x30, 0x0c,
   0x38, 0x00, 0x11, 0x00, 0x80, 0x3a, 0xc3, 0x03, 0xb3, 0x0c, 0x62, 0x36,
   0x07, 0x30, 0x30, 0x1c, 0x38, 0x80, 0x11, 0x00, 0x40, 0x0c, 0x22, 0x07,
   0xe1, 0x0d, 0x36, 0x1e, 0x07, 0x60, 0x38, 0x3c, 0x72, 0xc0, 0x10, 0x00,
   0x40, 0x0c, 0x1e, 0x8f, 0x61, 0x0d, 0x36, 0x1c, 0x00, 0xc0, 0x38, 0xf6,
   0xd3, 0x71, 0x10, 0x00, 0x40, 0x00, 0x1e, 0xf9, 0x60, 0x1d, 0x3e, 0x0c,
   0x00, 0xf8, 0x6c, 0xe2, 0x17, 0x3f, 0x10, 0x00, 0x40, 0x20, 0x1f, 0xf0,
   0x31, 0x1f, 0x2e, 0x0c, 0x00, 0xfc, 0x65, 0xe3, 0x37, 0x00, 0x10, 0x00,
   0x40, 0xf0, 0x1f, 0xb0, 0x01, 0x1e, 0x6e, 0xdc, 0x03, 0x3e, 0x46, 0xe3,
   0x35, 0x00, 0x10, 0x00, 0x40, 0x90, 0x1b, 0x18, 0x01, 0x1e, 0x7a, 0xfc,
   0x06, 0x7e, 0xc3, 0xb3, 0x2c, 0x00, 0x10, 0x00, 0xc0, 0xe1, 0x19, 0x1e,
   0x31, 0x36, 0x7b, 0x7c, 0x04, 0xfb, 0xc3, 0xf3, 0x68, 0x00, 0x58, 0x00,
   0xc0, 0x01, 0x18, 0xb8, 0x31, 0x26, 0x71, 0x6c, 0x0c, 0xdb, 0x83, 0xf3,
   0x48, 0x70, 0x78, 0x00, 0xc0, 0x19, 0x18, 0xe0, 0x30, 0xe6, 0x61, 0xcc,
   0x08, 0x8f, 0x87, 0xe3, 0x48, 0x78, 0x7c, 0x00, 0x80, 0xc7, 0x38, 0xc6,
   0x30, 0xc6, 0x61, 0xcc, 0x09, 0x8f, 0x87, 0xc3, 0xd9, 0x30, 0x30, 0x00,
   0x80, 0x83, 0x38, 0xfc, 0x00, 0xc2, 0x20, 0xcc, 0x09, 0x8f, 0x87, 0xc3,
   0xd9, 0x00, 0x20, 0x00, 0x80, 0x83, 0x38, 0xbc, 0x00, 0xe3, 0x20, 0xcc,
   0x09, 0xcf, 0x84, 0xc3, 0x51, 0x00, 0x30, 0x00, 0xfc, 0x44, 0x18, 0xbc,
   0x00, 0x23, 0x71, 0x68, 0x09, 0xdb, 0x84, 0xc1, 0x50, 0x00, 0x30, 0x00,
   0x07, 0x20, 0x18, 0xa4, 0xe0, 0x23, 0x70, 0x38, 0x0b, 0xdb, 0x8d, 0x01,
   0x7e, 0x00, 0x30, 0x00, 0x04, 0x00, 0x18, 0xe0, 0xe0, 0x63, 0x62, 0x10,
   0x0b, 0xd3, 0xcf, 0x01, 0x7e, 0xf0, 0x20, 0x00, 0x08, 0xf8, 0x38, 0x40,
   0x80, 0xe6, 0x63, 0x00, 0x0b, 0x13, 0xce, 0x01, 0x3e, 0x98, 0x61, 0x00,
   0x08, 0x08, 0x19, 0x40, 0x20, 0x86, 0x61, 0x00, 0x0e, 0x1b, 0xc0, 0x01,
   0x3e, 0x18, 0x41, 0x00, 0x08, 0x0c, 0x1e, 0x60, 0x20, 0x04, 0x60, 0x00,
   0x0e, 0x1b, 0xc0, 0x81, 0x1c, 0x10, 0x81, 0x80, 0x18, 0x0c, 0x1e, 0x78,
   0x60, 0x04, 0x30, 0x00, 0x04, 0x0e, 0xe0, 0xc0, 0x1d, 0x18, 0x83, 0xc1,
   0x10, 0x08, 0x3e, 0xfc, 0x20, 0x04, 0x38, 0x00, 0x03, 0x0e, 0xf0, 0xc0,
   0x3b, 0x08, 0x03, 0x71, 0x10, 0x18, 0x60, 0xc4, 0x30, 0x3c, 0x78, 0xcc,
   0x07, 0x0e, 0xf0, 0xc0, 0x73, 0x0c, 0x03, 0x79, 0x10, 0x10, 0x40, 0x86,
   0x11, 0x6c, 0x4c, 0xfe, 0x03, 0x1f, 0x78, 0xc0, 0xe3, 0x0c, 0x83, 0x3f,
   0x30, 0x30, 0xc0, 0x02, 0x11, 0xc0, 0xc4, 0x76, 0x03, 0x3f, 0x7c, 0x60,
   0xc6, 0x05, 0x03, 0x30, 0x20, 0x20, 0xc0, 0x02, 0x19, 0x80, 0x86, 0xa3,
   0x81, 0x61, 0x6c, 0x30, 0xc6, 0x07, 0x0f, 0x18, 0x60, 0x60, 0x80, 0x03,
   0x0b, 0x80, 0x86, 0x23, 0x83, 0xc1, 0xc4, 0x10, 0xce, 0x07, 0x08, 0x08,
   0x40, 0x40, 0x80, 0x03, 0x0a, 0x80, 0x83, 0x03, 0xc6, 0x80, 0x87, 0x19,
   0xfe, 0x07, 0x0c, 0x0c, 0xc0, 0xc0, 0x80, 0x01, 0x0a, 0x00, 0x03, 0x03,
   0xcc, 0x00, 0x07, 0x0b, 0xe2, 0x07, 0x06, 0x06, 0x80, 0x81, 0x81, 0x01,
   0x0e, 0x00, 0x03, 0x01, 0x58, 0x00, 0x03, 0x0f, 0x80, 0x05, 0x03, 0x03,
   0x00, 0x01, 0x83, 0x01, 0x0c, 0x00, 0x03, 0x01, 0x78, 0x00, 0x02, 0x0e,
   0x00, 0xc1, 0x81, 0x01, 0x00, 0x02, 0x06, 0x01, 0x0c, 0x00, 0x03, 0x01,
   0x70, 0x00, 0x00, 0x0c, 0x00, 0x60, 0xc0, 0x00, 0x00, 0x04, 0x0c, 0x01,
   0x0c, 0x00, 0x03, 0x00, 0x70, 0x00, 0x00, 0x0c, 0x00, 0x30, 0x60, 0x00,
   0x00, 0x08, 0x18, 0x01, 0x08, 0x00, 0x02, 0x00, 0x60, 0x00, 0x00, 0x00,
   0x00, 0x1c, 0x30, 0x00, 0x00, 0x10, 0x30, 0x00, 0x08, 0x00, 0x02, 0x00,
   0x60, 0x00, 0x00, 0x00, 0x00, 0x0e, 0x18, 0x00, 0x00, 0x60, 0xc0, 0x00,
   0x00, 0x00, 0x00, 0x00, 0x40, 0x00, 0x00, 0x00, 0x80, 0x03, 0x0e, 0x00,
   0x00, 0xc0, 0x00, 0x03, 0x00, 0x00, 0x00, 0x00, 0x40, 0x00, 0x00, 0x00,
   0xc0, 0x01, 0x07, 0x00, 0x00, 0x00, 0x03, 0x0c, 0x00, 0x00, 0x00, 0x00,
   0x00, 0x00, 0x00, 0x00, 0x70, 0xc0, 0x01, 0x00, 0x00, 0x00, 0x0e, 0x30,
   0x00, 0x00, 0x00, 0x00, 0x00, 0x00, 0x00, 0x00, 0x1c, 0x70, 0x00, 0x00,
   0x00, 0x00, 0x70, 0xc0, 0x01, 0x00, 0x00, 0x00, 0x00, 0x00, 0x00, 0x00,
   0x07, 0x3c, 0x00, 0x00, 0x00, 0x00, 0xc0, 0x03, 0x1f, 0x00, 0x00, 0x00,
   0x00, 0x00, 0x00, 0xe0, 0x01, 0x0f, 0x00, 0x00, 0x00, 0x00, 0x00, 0xfc,
   0x0f, 0x00, 0x00, 0x00, 0x00, 0x00, 0x00, 0x78, 0xf0, 0x01, 0x00, 0x00,
   0x00, 0x00, 0x00, 0x00, 0x00, 0x00, 0x00, 0x00, 0x00, 0x00, 0x00, 0x1f,
   0x3f, 0x00, 0x00, 0x00, 0x00, 0x00, 0x00, 0x00, 0x00, 0x00, 0x00, 0x00,
   0x00, 0x00, 0xe0, 0xff, 0x03, 0x00, 0x00, 0x00, 0x00, 0x00, 0x00, 0x00,
   0x00, 0x00, 0x00, 0x00, 0x00, 0x00, 0xf8, 0x07, 0x00, 0x00, 0x00, 0x00 };
